<svg version="1.0" xmlns="http://www.w3.org/2000/svg"
 width="50" height="50" viewBox="0 0 1080.000000 1080.000000"
 preserveAspectRatio="xMidYMid meet">

<g transform="translate(0.000000,1080.000000) scale(0.100000,-0.100000)"
fill="#2471a3" stroke="none">
<path d="M7155 9333 c-307 -25 -519 -76 -706 -168 -206 -102 -341 -235 -447
-443 -122 -237 -181 -508 -202 -912 -39 -786 -39 -3798 0 -4535 26 -473 117
-793 294 -1028 122 -163 271 -266 496 -345 331 -115 854 -145 1269 -71 459 82
736 273 906 624 127 263 177 527 197 1045 13 339 17 1699 5 1718 -6 9 -172 12
-773 12 l-764 0 0 -435 0 -435 278 -2 277 -3 8 -75 c5 -41 9 -268 10 -505 1
-719 -22 -866 -165 -1008 -111 -112 -296 -166 -522 -154 -269 15 -425 121
-493 336 -31 94 -38 224 -52 926 -33 1579 -13 4008 34 4239 55 265 255 406
574 406 293 -1 482 -140 536 -395 25 -120 38 -526 32 -1020 -4 -253 -9 -470
-13 -482 l-6 -23 499 0 500 0 7 158 c18 399 4 1022 -30 1292 -74 594 -281 945
-668 1129 -94 45 -246 94 -361 116 -181 35 -532 54 -720 38z"/>
<path d="M3917 6138 c-2 -2937 -4 -3127 -20 -3187 -24 -87 -72 -174 -120 -217
-115 -104 -346 -148 -573 -109 -211 37 -326 140 -380 340 -24 92 -37 536 -31
1118 l5 507 -468 0 -468 0 -7 -342 c-7 -355 7 -1050 25 -1213 45 -410 167
-724 352 -906 242 -238 664 -353 1233 -336 277 9 474 38 660 99 396 128 612
372 719 810 64 263 60 10 63 3441 l3 3117 -495 0 -495 0 -3 -3122z"/>
</g>
</svg>
